<?xml version="1.0" encoding="utf-8"?>
<svg xmlns="http://www.w3.org/2000/svg" viewBox="29.183 223.755 443.554 91.948" xmlns:bx="https://boxy-svg.com">
  <defs>
    <bx:export>
      <bx:file format="png" href="#object-0" path="asyoulikeit.png" excluded="true"/>
      <bx:file format="png" href="#object-0" path="logo.png"/>
    </bx:export>
  </defs>
  <path d="M 64.439 283.158 C 64.439 283.721 63.982 284.29 63.067 284.29 C 62.223 284.29 61.168 284.29 59.902 284.29 C 58.636 284.29 57.265 284.308 55.788 284.343 C 54.311 284.378 52.798 284.395 51.251 284.395 C 49.774 284.395 48.333 284.395 46.926 284.395 C 46.223 284.395 45.871 283.896 45.871 283.474 C 45.871 283.263 45.976 283.052 46.187 282.841 C 46.398 282.63 46.7 282.157 47.122 282.157 C 47.895 282.157 48.845 282.174 49.97 282.21 C 51.095 282.244 52.256 282.262 53.452 282.262 C 55.491 282.262 57.39 282.227 59.149 282.157 C 60.907 282.086 62.278 282.051 63.263 282.051 C 64.037 282.051 64.439 282.665 64.439 283.158 Z M 90.426 283.207 C 90.426 283.77 89.969 284.306 89.054 284.306 C 88.21 284.306 87.155 284.306 85.889 284.306 C 84.623 284.306 83.252 284.324 81.775 284.359 C 80.298 284.394 78.785 284.411 77.238 284.411 C 75.761 284.411 74.954 284.318 73.547 284.318 C 72.844 284.318 71.858 283.945 71.858 283.523 C 71.858 283.312 71.963 283.101 72.174 282.89 C 72.385 282.679 72.703 282.166 73.125 282.166 C 73.898 282.166 74.848 282.184 75.973 282.219 C 77.098 282.254 78.259 282.271 79.455 282.271 C 81.494 282.271 83.393 282.236 85.152 282.166 C 86.91 282.095 87.725 282.261 88.71 282.261 C 89.484 282.261 90.426 282.714 90.426 283.207 Z M 131.889 283.101 C 130.271 285.07 128.495 287.057 126.561 289.062 C 124.627 291.067 122.675 292.878 120.706 294.495 C 118.737 296.113 116.785 297.414 114.85 298.399 C 112.916 299.384 111.14 299.876 109.523 299.876 C 108.116 299.876 107.132 299.524 106.569 298.821 C 106.006 298.118 105.725 297.238 105.725 296.183 C 105.725 295.198 106.024 293.88 106.621 292.227 C 107.219 290.574 108.116 288.798 109.312 286.899 C 108.397 288.095 107.342 289.361 106.147 290.697 C 104.951 292.034 103.72 293.247 102.454 294.337 C 101.188 295.427 99.922 296.341 98.656 297.08 C 97.39 297.819 96.265 298.188 95.28 298.188 C 93.803 298.188 93.065 297.449 93.065 295.972 C 93.065 294.355 93.698 292.315 94.964 289.853 C 96.23 287.392 97.935 285.018 100.08 282.732 C 102.225 280.446 104.67 278.477 107.413 276.824 C 110.156 275.171 113.004 274.345 115.958 274.345 C 116.31 273.642 116.627 273.149 116.908 272.868 C 117.189 272.587 117.471 272.376 117.752 272.235 L 120.706 271.391 L 120.917 271.496 C 120.565 271.848 120.231 272.288 119.914 272.815 C 119.598 273.342 119.264 273.887 118.912 274.45 C 119.264 274.45 119.792 274.485 120.495 274.556 C 121.198 274.626 121.726 274.696 122.077 274.767 C 122.429 274.908 122.605 275.083 122.605 275.294 C 122.605 275.505 122.499 275.611 122.288 275.611 C 121.866 275.47 121.233 275.365 120.389 275.294 C 119.545 275.224 118.912 275.189 118.49 275.189 C 115.255 280.886 112.881 285.405 111.369 288.746 C 109.857 292.087 109.101 294.566 109.101 296.183 C 109.101 296.816 109.259 297.344 109.575 297.766 C 109.892 298.188 110.542 298.399 111.527 298.399 C 112.652 298.399 113.989 297.995 115.536 297.186 C 117.083 296.377 118.736 295.251 120.495 293.81 C 122.253 292.368 124.064 290.697 125.928 288.798 C 127.792 286.899 129.568 284.895 131.256 282.785 C 131.397 282.574 131.537 282.521 131.678 282.627 C 131.819 282.732 131.889 282.89 131.889 283.101 Z M 115.431 275.083 C 113.04 275.083 110.754 275.927 108.573 277.615 C 106.393 279.303 104.459 281.29 102.771 283.576 C 101.083 285.862 99.729 288.13 98.709 290.381 C 97.689 292.632 97.179 294.284 97.179 295.339 C 97.179 295.902 97.39 296.183 97.812 296.183 C 98.234 296.183 98.885 295.902 99.764 295.339 C 100.643 294.776 101.646 294.02 102.771 293.071 C 103.896 292.122 105.039 291.014 106.199 289.748 C 107.36 288.482 108.432 287.11 109.417 285.633 C 110.542 283.945 111.633 282.152 112.688 280.253 C 113.743 278.354 114.692 276.666 115.536 275.189 L 115.431 275.083 Z M 140.854 278.248 C 140.643 278.6 140.467 278.635 140.326 278.354 C 139.904 277.439 139.025 276.982 137.689 276.982 C 136.704 276.982 135.72 277.263 134.735 277.826 C 133.75 278.389 133.258 279.233 133.258 280.358 C 133.258 280.921 133.434 281.483 133.785 282.046 C 134.137 282.609 134.629 283.347 135.262 284.262 C 135.825 285.106 136.352 285.95 136.845 286.794 C 137.337 287.638 137.583 288.517 137.583 289.431 C 137.583 291.26 137.161 292.754 136.317 293.915 C 135.473 295.076 134.471 296.008 133.31 296.711 C 132.15 297.414 130.972 297.889 129.776 298.135 C 128.581 298.381 127.631 298.504 126.928 298.504 C 122.637 298.504 120.281 297.062 119.859 294.179 C 120.211 293.968 120.615 293.704 121.072 293.388 C 121.529 293.071 121.864 292.772 122.075 292.491 C 122.216 292.491 122.321 292.632 122.391 292.913 C 122.743 294.179 123.411 295.269 124.396 296.183 C 125.381 297.098 126.541 297.555 127.877 297.555 C 128.44 297.555 129.108 297.502 129.882 297.397 C 130.655 297.291 131.376 297.045 132.044 296.658 C 132.713 296.271 133.293 295.726 133.785 295.023 C 134.278 294.32 134.524 293.37 134.524 292.174 C 134.524 291.26 134.348 290.416 133.996 289.642 C 133.645 288.869 133.258 288.165 132.836 287.532 C 132.414 286.829 131.992 286.125 131.57 285.422 C 131.148 284.719 130.937 283.945 130.937 283.101 C 130.937 282.257 131.236 281.343 131.833 280.358 C 132.431 279.373 133.187 278.477 134.102 277.668 C 135.016 276.859 136.018 276.174 137.108 275.611 C 138.199 275.048 139.271 274.767 140.326 274.767 C 141.451 274.767 142.014 275.119 142.014 275.822 C 141.803 276.173 141.592 276.578 141.381 277.035 C 141.17 277.492 140.995 277.897 140.854 278.248 Z M 238.969 250.607 C 238.969 250.888 238.863 250.994 238.652 250.924 C 238.301 250.783 237.984 250.713 237.703 250.713 C 237.492 250.713 237.034 250.713 236.331 250.713 C 234.221 250.713 231.478 251.539 228.102 253.192 C 224.726 254.845 221.121 256.937 217.288 259.469 C 213.455 262.001 209.64 264.797 205.842 267.857 C 202.044 270.916 198.703 273.853 195.819 276.666 C 194.975 277.51 194.201 278.319 193.498 279.092 C 192.795 279.866 192.162 280.71 191.599 281.624 C 189.841 284.719 188.259 287.585 186.852 290.223 C 185.445 292.86 184.496 295.023 184.003 296.711 C 183.933 296.992 183.828 297.221 183.687 297.397 C 183.546 297.572 183.195 297.625 182.632 297.555 C 181.577 297.414 180.768 297.344 180.205 297.344 C 179.642 297.344 179.168 297.397 178.781 297.502 C 178.394 297.607 178.025 297.783 177.673 298.03 C 177.322 298.276 176.829 298.61 176.196 299.032 C 175.985 299.102 175.862 298.996 175.827 298.715 C 175.792 298.434 175.88 298.188 176.091 297.977 C 176.794 297.414 177.638 296.518 178.623 295.287 C 179.608 294.056 180.627 292.649 181.682 291.067 C 182.737 289.484 183.74 287.831 184.689 286.108 C 185.638 284.385 186.465 282.785 187.168 281.308 C 187.942 279.62 188.645 277.545 189.278 275.083 C 189.911 272.622 190.228 270.406 190.228 268.437 C 190.228 266.608 190.034 264.832 189.647 263.109 C 189.26 261.386 188.61 259.856 187.696 258.52 C 186.781 257.183 185.568 256.128 184.056 255.355 C 182.544 254.581 180.698 254.194 178.517 254.194 C 175.985 254.194 173.893 254.581 172.24 255.355 C 170.587 256.128 169.128 257.394 167.862 259.153 C 167.651 259.434 167.369 259.557 167.018 259.522 C 166.666 259.487 166.666 259.188 167.018 258.625 C 169.128 255.952 171.519 254.018 174.192 252.823 C 176.865 251.627 179.819 251.029 183.054 251.029 C 185.093 251.029 186.852 251.434 188.329 252.243 C 189.806 253.052 191.001 254.124 191.916 255.46 C 192.83 256.797 193.498 258.362 193.92 260.155 C 194.342 261.948 194.553 263.795 194.553 265.694 C 194.553 266.538 194.5 267.47 194.395 268.49 C 194.29 269.509 194.167 270.459 194.026 271.338 C 193.885 272.217 193.762 272.991 193.656 273.659 C 193.551 274.327 193.498 274.731 193.498 274.872 C 193.428 275.224 193.481 275.488 193.656 275.664 C 193.832 275.839 194.061 275.786 194.342 275.505 C 199.406 271.637 204.452 267.681 209.481 263.637 C 214.51 259.592 219.487 255.847 224.41 252.401 C 225.887 251.346 227.575 250.326 229.474 249.341 C 231.373 248.356 233.236 247.864 235.065 247.864 C 235.909 247.864 236.7 248.198 237.439 248.867 C 238.178 249.535 238.688 250.115 238.969 250.607 Z M 258.642 291.014 C 255.969 293.827 253.191 296.096 250.307 297.819 C 247.424 299.542 244.259 300.403 240.812 300.403 C 239.405 300.403 238.438 300.034 237.911 299.296 C 237.384 298.557 237.12 297.59 237.12 296.394 C 237.12 295.199 237.401 293.739 237.964 292.016 C 238.527 290.293 239.3 288.411 240.285 286.372 C 239.441 287.567 238.544 288.728 237.595 289.853 C 236.645 290.978 235.695 291.981 234.746 292.86 C 233.797 293.739 232.865 294.443 231.95 294.97 C 231.036 295.497 230.157 295.761 229.313 295.761 C 227.766 295.761 226.992 294.987 226.992 293.44 C 226.992 292.877 227.291 291.928 227.889 290.592 C 228.486 289.255 229.629 287.286 231.317 284.684 C 232.091 283.488 232.865 282.24 233.638 280.939 C 234.412 279.638 234.799 278.495 234.799 277.51 C 234.799 276.877 234.57 276.332 234.113 275.875 C 233.656 275.418 232.829 275.189 231.634 275.189 C 230.087 275.189 228.311 275.505 226.306 276.138 C 224.301 276.771 222.561 277.369 221.084 277.932 C 221.154 279.057 220.802 280.745 220.029 282.996 C 219.255 285.247 218.2 287.497 216.864 289.748 C 215.527 291.999 213.998 293.968 212.275 295.656 C 210.552 297.344 208.74 298.188 206.841 298.188 C 205.927 298.188 205.189 297.907 204.626 297.344 C 204.063 296.781 203.782 296.008 203.782 295.023 C 203.782 293.124 204.204 291.189 205.048 289.22 C 205.892 287.251 206.947 285.422 208.213 283.734 C 209.479 282.046 210.85 280.552 212.327 279.251 C 213.804 277.95 215.176 276.982 216.442 276.349 C 216.301 276.068 216.231 275.681 216.231 275.189 C 216.231 275.048 216.266 274.872 216.336 274.661 C 216.407 274.45 216.547 274.345 216.758 274.345 C 217.11 274.696 217.462 274.89 217.813 274.925 C 218.165 274.96 218.622 274.978 219.185 274.978 C 220.38 274.978 221.963 274.89 223.932 274.714 C 225.901 274.538 227.8 274.45 229.629 274.45 C 232.302 274.45 234.13 274.855 235.115 275.664 C 236.1 276.473 236.592 277.721 236.592 279.409 C 236.592 280.253 236.328 281.326 235.801 282.627 C 235.274 283.928 234.553 285.352 233.638 286.899 C 232.653 288.517 231.915 289.836 231.423 290.856 C 230.93 291.875 230.684 292.666 230.684 293.229 C 230.684 293.792 230.93 294.073 231.423 294.073 C 231.915 294.073 232.636 293.686 233.586 292.913 C 234.535 292.139 235.52 291.225 236.54 290.17 C 237.559 289.115 238.526 288.007 239.441 286.847 C 240.355 285.686 241.023 284.684 241.445 283.84 C 242.148 282.644 242.887 281.378 243.661 280.042 C 244.434 278.705 245.278 277.369 246.193 276.033 C 246.544 275.681 247.054 275.4 247.723 275.189 C 248.391 274.978 249.147 274.802 249.991 274.661 C 250.624 274.661 250.94 274.802 250.94 275.083 C 250.589 275.224 250.255 275.417 249.938 275.664 C 249.621 275.91 249.252 276.349 248.83 276.982 C 247.635 278.811 246.545 280.675 245.56 282.574 C 244.575 284.473 243.714 286.266 242.975 287.954 C 242.236 289.642 241.674 291.154 241.287 292.491 C 240.9 293.827 240.707 294.847 240.707 295.55 C 240.707 296.535 240.918 297.379 241.34 298.082 C 241.762 298.785 242.5 299.137 243.555 299.137 C 245.384 299.137 247.529 298.522 249.991 297.291 C 252.452 296.06 255.195 293.792 258.22 290.486 C 258.501 290.345 258.642 290.521 258.642 291.014 Z M 218.763 279.831 C 218.763 279.62 218.763 279.373 218.763 279.092 C 218.763 278.811 218.728 278.565 218.657 278.354 C 218.376 278.213 218.059 278.002 217.708 277.721 C 217.356 277.44 217.075 277.193 216.864 276.982 C 215.879 277.263 214.824 278.072 213.699 279.409 C 212.574 280.745 211.519 282.292 210.534 284.051 C 209.549 285.809 208.74 287.62 208.107 289.484 C 207.474 291.348 207.158 292.983 207.158 294.39 C 207.158 295.093 207.316 295.621 207.633 295.972 C 207.949 296.324 208.318 296.5 208.74 296.5 C 209.514 296.5 210.481 296.008 211.642 295.023 C 212.802 294.038 213.91 292.755 214.965 291.172 C 216.02 289.589 216.916 287.813 217.655 285.844 C 218.394 283.875 218.763 281.87 218.763 279.831 Z M 316.403 251.557 C 315.981 251.416 315.506 251.311 314.979 251.24 C 314.452 251.17 313.801 251.135 313.027 251.135 C 311.691 251.135 310.671 251.557 309.968 252.401 C 309.265 253.245 308.526 254.159 307.752 255.144 C 306.838 256.41 305.889 257.799 304.904 259.311 C 303.919 260.823 303.04 262.282 302.266 263.689 C 301.563 264.885 300.736 266.309 299.787 267.962 C 298.838 269.615 297.835 271.373 296.78 273.237 C 295.725 275.101 294.653 276.982 293.563 278.881 C 292.472 280.78 291.435 282.574 290.45 284.262 C 288.762 287.075 287.057 289.273 285.334 290.856 C 283.611 292.438 281.799 293.757 279.9 294.812 C 279.478 295.023 279.232 295.234 279.162 295.445 C 279.091 295.656 279.373 295.761 280.006 295.761 C 281.975 295.55 284.331 295.339 287.074 295.128 C 289.817 294.917 292.508 294.724 295.145 294.548 C 297.782 294.372 300.156 294.214 302.266 294.073 C 304.376 293.932 305.853 293.862 306.697 293.862 C 307.049 293.862 307.506 293.862 308.069 293.862 C 308.702 293.862 309.335 293.88 309.968 293.915 C 310.601 293.95 311.198 293.986 311.761 294.021 C 312.324 294.056 312.746 294.108 313.027 294.179 C 314.152 294.46 314.715 294.953 314.715 295.656 C 314.715 296.007 314.557 296.693 314.241 297.713 C 313.924 298.733 313.625 299.524 313.344 300.087 C 313.203 300.087 313.133 299.946 313.133 299.665 C 313.133 299.313 313.08 298.961 312.975 298.61 C 312.869 298.258 312.605 298.012 312.183 297.871 C 311.128 297.449 309.933 297.133 308.596 296.922 C 307.26 296.711 305.889 296.552 304.482 296.447 C 303.075 296.342 301.704 296.271 300.367 296.236 C 299.031 296.201 297.765 296.183 296.569 296.183 C 292.49 296.183 289.061 296.253 286.283 296.394 C 283.505 296.535 281.166 296.711 279.267 296.922 C 277.368 297.133 275.821 297.361 274.625 297.608 C 273.43 297.854 272.375 298.118 271.46 298.399 C 271.179 298.328 270.933 298.17 270.722 297.924 C 270.511 297.678 270.405 297.449 270.405 297.238 C 270.405 296.816 270.686 296.605 271.249 296.605 C 272.515 296.605 273.64 296.535 274.625 296.394 C 275.61 296.253 276.454 295.972 277.157 295.55 C 278.282 294.847 279.355 293.88 280.375 292.649 C 281.395 291.418 282.643 289.572 284.12 287.11 C 285.597 284.649 287.162 281.941 288.815 278.987 C 290.468 276.033 292.121 273.026 293.774 269.967 C 295.427 266.907 297.062 263.918 298.679 260.999 C 300.297 258.08 301.774 255.496 303.11 253.245 C 303.251 252.893 303.479 252.629 303.796 252.454 C 304.113 252.278 304.447 252.12 304.798 251.979 C 306.275 251.416 308.122 250.959 310.337 250.607 C 312.552 250.256 314.539 250.08 316.298 250.08 C 316.649 250.221 316.808 250.467 316.773 250.818 C 316.738 251.17 316.614 251.416 316.403 251.557 Z M 340.457 260.208 C 340.457 261.052 340.088 261.896 339.35 262.74 C 338.611 263.584 337.785 264.006 336.87 264.006 C 336.026 264.006 335.604 263.584 335.604 262.74 C 335.604 261.825 335.938 260.946 336.607 260.102 C 337.275 259.258 338.101 258.836 339.086 258.836 C 340 258.836 340.457 259.293 340.457 260.208 Z M 345.205 283.734 C 343.517 285.915 341.583 287.99 339.402 289.959 C 337.222 291.928 335.218 293.511 333.389 294.706 C 331.982 295.621 330.54 296.324 329.063 296.816 C 327.586 297.309 326.25 297.555 325.054 297.555 C 324.632 297.555 324.14 297.52 323.577 297.449 C 323.014 297.379 322.505 297.203 322.048 296.922 C 321.591 296.641 321.204 296.271 320.887 295.814 C 320.57 295.357 320.412 294.741 320.412 293.968 C 320.412 293.053 320.764 291.805 321.467 290.223 C 322.17 288.64 322.997 287.005 323.947 285.317 C 324.896 283.629 325.846 282.011 326.795 280.464 C 327.744 278.917 328.5 277.756 329.063 276.982 C 329.415 276.419 330.031 275.945 330.91 275.558 C 331.789 275.171 332.369 274.978 332.65 274.978 C 333.002 274.978 333.178 275.083 333.178 275.294 C 333.178 275.435 333.125 275.646 333.02 275.927 C 332.914 276.208 332.791 276.419 332.65 276.56 C 331.736 277.967 330.804 279.514 329.855 281.202 C 328.905 282.89 328.043 284.525 327.27 286.108 C 326.496 287.691 325.881 289.15 325.424 290.486 C 324.967 291.823 324.738 292.878 324.738 293.651 C 324.738 294.495 324.967 295.111 325.424 295.498 C 325.881 295.885 326.496 296.078 327.27 296.078 C 328.677 296.078 330.224 295.603 331.912 294.654 C 333.6 293.704 335.27 292.561 336.923 291.225 C 338.576 289.888 340.105 288.482 341.512 287.005 C 342.919 285.528 344.009 284.262 344.783 283.207 C 345.134 282.855 345.328 282.767 345.363 282.943 C 345.398 283.119 345.346 283.383 345.205 283.734 Z M 397.534 234.677 C 397.534 235.45 397.341 236.224 396.954 236.998 C 396.567 237.771 396.304 238.65 396.163 239.635 C 396.163 239.987 396.04 240.181 395.794 240.216 C 395.547 240.251 395.424 240.092 395.424 239.741 C 395.424 239.53 395.459 239.336 395.53 239.161 C 395.6 238.985 395.635 238.791 395.635 238.58 C 395.635 237.736 395.424 236.998 395.002 236.365 C 394.58 235.732 394.035 235.222 393.367 234.835 C 392.699 234.448 391.978 234.167 391.204 233.991 C 390.431 233.815 389.692 233.727 388.989 233.727 C 387.371 233.727 385.349 234.149 382.923 234.993 C 380.496 235.837 377.876 237.701 375.063 240.585 C 372.46 243.258 369.911 246.335 367.414 249.816 C 364.917 253.297 362.544 256.867 360.293 260.524 C 358.886 262.845 357.304 265.501 355.545 268.49 C 353.787 271.479 352.099 274.397 350.481 277.246 C 348.864 280.095 347.422 282.627 346.156 284.842 C 344.89 287.057 344.081 288.552 343.729 289.326 C 343.448 289.889 343.342 290.17 343.413 290.17 C 343.554 290.17 343.835 289.959 344.257 289.537 C 345.452 288.341 346.683 287.18 347.949 286.055 C 349.215 284.93 350.587 283.699 352.064 282.363 C 351.993 282.082 351.958 281.624 351.958 280.991 C 351.958 280.428 352.398 279.883 353.277 279.356 C 354.156 278.829 354.842 278.495 355.334 278.354 C 355.475 278.354 355.545 278.495 355.545 278.776 C 355.545 278.987 355.58 279.162 355.651 279.303 C 356.002 279.022 356.811 278.336 358.077 277.246 C 359.343 276.156 360.715 275.031 362.192 273.87 C 363.669 272.709 365.023 271.654 366.254 270.705 C 367.485 269.756 368.241 269.281 368.522 269.281 C 368.733 269.281 368.926 269.369 369.102 269.545 C 369.278 269.72 369.471 270.089 369.682 270.652 C 369.682 271.074 369.33 271.391 368.627 271.602 C 367.783 271.883 366.763 272.376 365.568 273.079 C 364.372 273.782 363.159 274.591 361.928 275.505 C 360.697 276.42 359.502 277.334 358.341 278.248 C 357.18 279.163 356.248 279.936 355.545 280.569 C 355.616 281.484 355.756 282.504 355.967 283.629 C 356.178 284.754 356.425 285.88 356.706 287.005 C 356.987 288.13 357.321 289.238 357.708 290.328 C 358.095 291.418 358.499 292.385 358.921 293.229 C 359.273 294.003 359.783 294.566 360.451 294.917 C 361.119 295.269 361.805 295.445 362.508 295.445 C 363.563 295.445 364.742 295.023 366.043 294.179 C 367.344 293.335 368.662 292.262 369.999 290.961 C 371.335 289.66 372.619 288.253 373.85 286.741 C 375.081 285.229 376.153 283.805 377.067 282.468 C 377.278 282.117 377.507 282.046 377.753 282.257 C 377.999 282.468 378.017 282.679 377.806 282.89 C 376.751 284.297 375.625 285.703 374.43 287.11 C 373.234 288.517 372.021 289.853 370.79 291.119 C 369.559 292.385 368.346 293.51 367.15 294.495 C 365.955 295.48 364.865 296.253 363.88 296.816 C 362.192 297.66 360.75 298.082 359.554 298.082 C 358.64 298.082 357.831 297.871 357.128 297.449 C 356.425 297.027 355.809 296.271 355.282 295.181 C 354.754 294.091 354.262 292.596 353.805 290.697 C 353.348 288.798 352.838 286.372 352.275 283.418 C 350.024 285.598 347.774 287.849 345.523 290.17 C 343.272 292.491 341.373 295.023 339.826 297.766 C 339.685 298.117 339.404 298.293 338.982 298.293 C 338.489 298.293 338.102 297.994 337.821 297.397 C 337.54 296.799 337.399 296.254 337.399 295.761 C 337.399 295.62 337.399 295.48 337.399 295.339 C 337.399 295.198 337.434 295.058 337.505 294.917 C 338.208 293.932 338.947 292.719 339.72 291.278 C 340.494 289.836 341.461 288.078 342.622 286.003 C 343.782 283.928 345.206 281.448 346.894 278.565 C 348.582 275.681 350.657 272.27 353.119 268.331 C 354.244 266.502 355.528 264.516 356.97 262.371 C 358.411 260.226 359.923 258.045 361.506 255.83 C 363.089 253.614 364.706 251.434 366.359 249.289 C 368.012 247.144 369.612 245.192 371.159 243.433 C 372.284 242.167 373.498 240.884 374.799 239.583 C 376.1 238.282 377.454 237.086 378.861 235.996 C 380.268 234.905 381.727 233.938 383.239 233.094 C 384.751 232.25 386.281 231.652 387.828 231.301 C 388.531 231.16 389.217 231.02 389.886 230.879 C 390.554 230.738 391.204 230.668 391.837 230.668 C 392.4 230.668 393.015 230.756 393.684 230.932 C 394.352 231.107 394.967 231.353 395.53 231.67 C 396.093 231.987 396.567 232.391 396.954 232.883 C 397.341 233.376 397.534 233.974 397.534 234.677 Z M 398.058 285 C 396.862 286.477 395.438 288.007 393.785 289.59 C 392.132 291.172 390.339 292.614 388.404 293.915 C 386.47 295.216 384.466 296.271 382.391 297.08 C 380.316 297.889 378.259 298.293 376.219 298.293 C 372.914 298.293 371.261 296.816 371.261 293.862 C 371.261 291.893 371.771 289.765 372.79 287.48 C 373.81 285.194 375.129 283.084 376.747 281.15 C 378.364 279.215 380.14 277.598 382.074 276.297 C 384.009 274.996 385.855 274.345 387.613 274.345 C 388.598 274.345 389.283 274.521 389.67 274.872 C 390.057 275.224 390.251 275.681 390.251 276.244 C 390.251 277.088 389.987 278.002 389.459 278.987 C 388.932 279.972 388.141 280.904 387.086 281.783 C 386.031 282.662 384.694 283.4 383.077 283.998 C 381.459 284.596 379.525 284.895 377.274 284.895 C 376.923 285.528 376.536 286.53 376.114 287.902 C 375.692 289.273 375.481 290.662 375.481 292.069 C 375.481 294.952 376.782 296.394 379.384 296.394 C 381.002 296.394 382.672 296.007 384.395 295.234 C 386.118 294.46 387.789 293.493 389.407 292.333 C 391.024 291.172 392.519 289.906 393.89 288.535 C 395.262 287.163 396.405 285.879 397.319 284.684 C 397.46 284.543 397.618 284.508 397.794 284.578 C 397.97 284.649 398.058 284.789 398.058 285 Z M 386.98 276.771 C 386.98 275.857 386.523 275.4 385.609 275.4 C 384.906 275.4 384.185 275.664 383.446 276.191 C 382.707 276.718 381.986 277.404 381.283 278.248 C 380.58 279.092 379.912 280.006 379.279 280.991 C 378.646 281.976 378.118 282.925 377.696 283.84 C 377.837 283.91 378.083 283.963 378.435 283.998 C 378.786 284.033 379.068 284.051 379.279 284.051 C 381.318 284.051 383.112 283.33 384.659 281.888 C 386.206 280.446 386.98 278.74 386.98 276.771 Z M 412.832 297.238 C 413.395 297.168 413.94 296.957 414.467 296.605 C 414.994 296.254 415.434 295.867 415.786 295.445 C 416.63 294.39 417.773 292.842 419.215 290.803 C 420.656 288.763 422.204 286.477 423.857 283.945 C 425.51 281.413 427.215 278.74 428.973 275.927 C 430.732 273.114 432.385 270.388 433.932 267.751 C 435.479 265.114 436.833 262.67 437.994 260.419 C 439.154 258.168 439.945 256.34 440.367 254.933 C 440.508 254.511 440.578 254.124 440.578 253.772 C 440.578 252.999 439.629 252.612 437.73 252.612 C 436.886 252.612 435.936 252.647 434.881 252.717 C 433.826 252.788 432.842 252.928 431.927 253.139 L 431.611 253.034 C 431.752 252.471 431.963 252.049 432.244 251.768 C 435.198 251.627 438.099 251.469 440.948 251.293 C 443.796 251.117 446.24 250.853 448.28 250.502 C 448.631 250.713 448.807 250.994 448.807 251.346 C 448.807 251.487 448.596 251.627 448.174 251.768 C 447.611 251.909 447.154 252.225 446.803 252.717 C 446.451 253.21 446.099 253.772 445.748 254.405 C 444.271 257.148 442.6 260.208 440.737 263.584 C 438.873 266.96 436.886 270.459 434.776 274.081 C 432.666 277.703 430.503 281.308 428.288 284.895 C 426.072 288.482 423.944 291.822 421.905 294.917 C 421.342 295.691 420.709 296.289 420.006 296.711 C 419.303 297.133 418.634 297.414 418.001 297.555 C 417.228 297.696 416.384 297.784 415.469 297.819 C 414.555 297.854 413.746 297.836 413.043 297.766 C 412.902 297.695 412.832 297.519 412.832 297.238 Z M 464.629 259.047 C 464.066 259.188 463.433 259.452 462.73 259.839 C 462.027 260.226 461.499 260.7 461.148 261.263 C 459.53 263.514 457.965 265.87 456.453 268.331 C 454.941 270.793 453.482 273.255 452.075 275.716 L 465.157 275.716 C 465.368 275.857 465.473 275.997 465.473 276.138 C 465.473 276.279 465.403 276.384 465.262 276.455 C 464.699 276.455 463.855 276.473 462.73 276.508 C 461.605 276.543 460.374 276.595 459.038 276.666 C 457.701 276.736 456.33 276.806 454.923 276.877 C 453.516 276.947 452.286 277.017 451.231 277.088 C 449.262 280.605 447.749 283.594 446.694 286.055 C 445.639 288.517 445.112 290.662 445.112 292.491 C 445.112 295.023 446.272 296.289 448.593 296.289 C 449.718 296.289 451.002 295.99 452.444 295.392 C 453.886 294.794 455.416 294.003 457.033 293.018 C 457.244 292.807 457.455 292.825 457.666 293.071 C 457.877 293.317 457.807 293.51 457.455 293.651 C 455.064 295.198 452.848 296.324 450.809 297.027 C 448.769 297.73 446.694 298.082 444.584 298.082 C 443.459 298.082 442.474 297.748 441.63 297.08 C 440.786 296.412 440.364 295.269 440.364 293.651 C 440.364 292.244 440.997 290.17 442.263 287.427 C 443.529 284.684 445.393 281.308 447.855 277.299 C 447.011 277.369 445.974 277.457 444.743 277.563 C 443.512 277.668 442.791 277.721 442.58 277.721 C 442.228 277.721 442.052 277.58 442.052 277.299 C 442.333 276.806 442.791 276.314 443.424 275.822 L 448.804 275.716 C 449.437 274.661 450.141 273.483 450.914 272.182 C 451.688 270.881 452.462 269.58 453.235 268.279 C 454.009 266.978 454.8 265.712 455.609 264.481 C 456.418 263.25 457.139 262.107 457.772 261.052 C 458.545 260.7 459.618 260.243 460.99 259.68 C 462.361 259.117 463.574 258.66 464.629 258.309 C 464.77 258.309 464.875 258.397 464.946 258.573 C 465.016 258.748 464.91 258.906 464.629 259.047 Z" style="text-wrap-mode: nowrap; fill: rgb(106, 59, 17);" id="object-0"/>
</svg>